<svg xmlns="http://www.w3.org/2000/svg" class="w-full h-full leading-none markmap mm-qd1di5-1" width="1300" height="560" viewBox="0 0 1300 560" style=""><style>.markmap{--markmap-max-width: 9999px;--markmap-a-color: #0097e6;--markmap-a-hover-color: #00a8ff;--markmap-code-bg: #f0f0f0;--markmap-code-color: #555;--markmap-highlight-bg: #ffeaa7;--markmap-table-border: 1px solid currentColor;--markmap-font: 300 16px/20px sans-serif;--markmap-circle-open-bg: #fff;--markmap-text-color: #333;--markmap-highlight-node-bg: #ff02;font:var(--markmap-font);color:var(--markmap-text-color)}.markmap-link{fill:none}.markmap-node&gt;circle{cursor:pointer}.markmap-foreign{display:inline-block}.markmap-foreign p{margin:0}.markmap-foreign a{color:var(--markmap-a-color)}.markmap-foreign a:hover{color:var(--markmap-a-hover-color)}.markmap-foreign code{padding:.25em;font-size:calc(1em - 2px);color:var(--markmap-code-color);background-color:var(--markmap-code-bg);border-radius:2px}.markmap-foreign pre{margin:0}.markmap-foreign pre&gt;code{display:block}.markmap-foreign del{text-decoration:line-through}.markmap-foreign em{font-style:italic}.markmap-foreign strong{font-weight:700}.markmap-foreign mark{background:var(--markmap-highlight-bg)}.markmap-foreign table,.markmap-foreign th,.markmap-foreign td{border-collapse:collapse;border:var(--markmap-table-border)}.markmap-foreign img{display:inline-block}.markmap-foreign svg{fill:currentColor}.markmap-foreign&gt;div{width:var(--markmap-max-width);text-align:left}.markmap-foreign&gt;div&gt;div{display:inline-block}.markmap-highlight rect{fill:var(--markmap-highlight-node-bg)}.markmap-dark .markmap{--markmap-code-bg: #1a1b26;--markmap-code-color: #ddd;--markmap-circle-open-bg: #444;--markmap-text-color: #eee}</style><g transform="translate(24.159385400061865,316.09855690581986) scale(0.9315106045078423)"><path class="markmap-link" data-depth="5" data-path="1.2.3.4.5" d="M717,-267.773C757,-267.773,757,-294.914,797,-294.914" stroke-width="1.09375" stroke="rgb(255, 127, 14)"/><path class="markmap-link" data-depth="5" data-path="1.2.3.4.6" d="M717,-267.773C757,-267.773,757,-266.82,797,-266.82" stroke-width="1.09375" stroke="rgb(255, 127, 14)"/><path class="markmap-link" data-depth="5" data-path="1.2.3.4.7" d="M717,-267.773C757,-267.773,757,-238.727,797,-238.727" stroke-width="1.09375" stroke="rgb(255, 127, 14)"/><path class="markmap-link" data-depth="5" data-path="1.2.3.8.9" d="M670,-192.539C710,-192.539,710,-205.633,750,-205.633" stroke-width="1.09375" stroke="rgb(255, 127, 14)"/><path class="markmap-link" data-depth="5" data-path="1.2.3.8.10" d="M670,-192.539C710,-192.539,710,-177.539,750,-177.539" stroke-width="1.09375" stroke="rgb(255, 127, 14)"/><path class="markmap-link" data-depth="4" data-path="1.2.3.4" d="M529,-229.062C569,-229.062,569,-267.773,609,-267.773" stroke-width="1.1875" stroke="rgb(255, 127, 14)"/><path class="markmap-link" data-depth="4" data-path="1.2.3.8" d="M529,-229.062C569,-229.062,569,-192.539,609,-192.539" stroke-width="1.1875" stroke="rgb(255, 127, 14)"/><path class="markmap-link" data-depth="5" data-path="1.2.11.12.13" d="M832,-145.398C872,-145.398,872,-144.445,912,-144.445" stroke-width="1.09375" stroke="rgb(255, 127, 14)"/><path class="markmap-link" data-depth="5" data-path="1.2.11.14.15" d="M785,-98.258C825,-98.258,825,-111.352,865,-111.352" stroke-width="1.09375" stroke="rgb(255, 127, 14)"/><path class="markmap-link" data-depth="5" data-path="1.2.11.14.16" d="M785,-98.258C825,-98.258,825,-83.258,865,-83.258" stroke-width="1.09375" stroke="rgb(255, 127, 14)"/><path class="markmap-link" data-depth="4" data-path="1.2.11.12" d="M644,-120.734C684,-120.734,684,-145.398,724,-145.398" stroke-width="1.1875" stroke="rgb(255, 127, 14)"/><path class="markmap-link" data-depth="4" data-path="1.2.11.14" d="M644,-120.734C684,-120.734,684,-98.258,724,-98.258" stroke-width="1.1875" stroke="rgb(255, 127, 14)"/><path class="markmap-link" data-depth="3" data-path="1.2.3" d="M238,-175.711C278,-175.711,278,-229.062,318,-229.062" stroke-width="1.375" stroke="rgb(255, 127, 14)"/><path class="markmap-link" data-depth="3" data-path="1.2.11" d="M238,-175.711C278,-175.711,278,-120.734,318,-120.734" stroke-width="1.375" stroke="rgb(255, 127, 14)"/><path class="markmap-link" data-depth="3" data-path="1.17.18" d="M380,-39.414C420,-39.414,420,-66.977,460,-66.977" stroke-width="1.375" stroke="rgb(148, 103, 189)"/><path class="markmap-link" data-depth="3" data-path="1.17.19" d="M380,-39.414C420,-39.414,420,-40.602,460,-40.602" stroke-width="1.375" stroke="rgb(148, 103, 189)"/><path class="markmap-link" data-depth="3" data-path="1.17.20" d="M380,-39.414C420,-39.414,420,-14.227,460,-14.227" stroke-width="1.375" stroke="rgb(148, 103, 189)"/><path class="markmap-link" data-depth="4" data-path="1.21.22.23" d="M492,61.43C532,61.43,532,19.055,572,19.055" stroke-width="1.1875" stroke="rgb(140, 86, 75)"/><path class="markmap-link" data-depth="4" data-path="1.21.22.24" d="M492,61.43C532,61.43,532,47.242,572,47.242" stroke-width="1.1875" stroke="rgb(140, 86, 75)"/><path class="markmap-link" data-depth="4" data-path="1.21.22.25" d="M492,61.43C532,61.43,532,75.43,572,75.43" stroke-width="1.1875" stroke="rgb(140, 86, 75)"/><path class="markmap-link" data-depth="4" data-path="1.21.22.26" d="M492,61.43C532,61.43,532,103.617,572,103.617" stroke-width="1.1875" stroke="rgb(140, 86, 75)"/><path class="markmap-link" data-depth="4" data-path="1.21.27.28" d="M449,136.898C489,136.898,489,136.805,529,136.805" stroke-width="1.1875" stroke="rgb(140, 86, 75)"/><path class="markmap-link" data-depth="3" data-path="1.21.22" d="M216,98.352C256,98.352,256,61.43,296,61.43" stroke-width="1.375" stroke="rgb(140, 86, 75)"/><path class="markmap-link" data-depth="3" data-path="1.21.27" d="M216,98.352C256,98.352,256,136.898,296,136.898" stroke-width="1.375" stroke="rgb(140, 86, 75)"/><path class="markmap-link" data-depth="4" data-path="1.29.30.31" d="M508,198.273C548,198.273,548,169.992,588,169.992" stroke-width="1.1875" stroke="rgb(227, 119, 194)"/><path class="markmap-link" data-depth="4" data-path="1.29.30.32" d="M508,198.273C548,198.273,548,198.18,588,198.18" stroke-width="1.1875" stroke="rgb(227, 119, 194)"/><path class="markmap-link" data-depth="4" data-path="1.29.30.33" d="M508,198.273C548,198.273,548,226.367,588,226.367" stroke-width="1.1875" stroke="rgb(227, 119, 194)"/><path class="markmap-link" data-depth="3" data-path="1.29.30" d="M241,197.461C281,197.461,281,198.273,321,198.273" stroke-width="1.375" stroke="rgb(227, 119, 194)"/><path class="markmap-link" data-depth="2" data-path="1.2" d="M84,11.25C124,11.25,124,-175.711,164,-175.711" stroke-width="1.75" stroke="rgb(255, 127, 14)"/><path class="markmap-link" data-depth="2" data-path="1.17" d="M84,11.25C124,11.25,124,-39.414,164,-39.414" stroke-width="1.75" stroke="rgb(148, 103, 189)"/><path class="markmap-link" data-depth="2" data-path="1.21" d="M84,11.25C124,11.25,124,98.352,164,98.352" stroke-width="1.75" stroke="rgb(140, 86, 75)"/><path class="markmap-link" data-depth="2" data-path="1.29" d="M84,11.25C124,11.25,124,197.461,164,197.461" stroke-width="1.75" stroke="rgb(227, 119, 194)"/><g class="markmap-highlight"/><g data-depth="5" data-path="1.2.3.4.5" class="markmap-node" transform="translate(797, -317.4609375)"><line stroke="#ff7f0e" stroke-width="1.09375" x1="-1" x2="155" y1="22.546875" y2="22.546875"/><foreignObject class="markmap-foreign" x="8" y="0" width="137" height="22" style="opacity: 1;"><div xmlns="http://www.w3.org/1999/xhtml"><div xmlns="http://www.w3.org/1999/xhtml"><code>DeliveryJobCard</code></div></div></foreignObject></g><g data-depth="5" data-path="1.2.3.4.6" class="markmap-node" transform="translate(797, -289.3671875)"><line stroke="#ff7f0e" stroke-width="1.09375" x1="-1" x2="281" y1="22.546875" y2="22.546875"/><foreignObject class="markmap-foreign" x="8" y="0" width="263" height="22" style="opacity: 1;"><div xmlns="http://www.w3.org/1999/xhtml"><div xmlns="http://www.w3.org/1999/xhtml"><code>DeliveryJobCardLoader</code> <em>(skeleton)</em></div></div></foreignObject></g><g data-depth="5" data-path="1.2.3.4.7" class="markmap-node" transform="translate(797, -261.2734375)"><line stroke="#ff7f0e" stroke-width="1.09375" x1="-1" x2="367" y1="22.546875" y2="22.546875"/><foreignObject class="markmap-foreign" x="8" y="0" width="349" height="22" style="opacity: 1;"><div xmlns="http://www.w3.org/1999/xhtml"><div xmlns="http://www.w3.org/1999/xhtml"><code>CourierDialogConfig</code> <em>(courier switcher dialog)</em></div></div></foreignObject></g><g data-depth="4" data-path="1.2.3.4" class="markmap-node" transform="translate(609, -288.3671875)"><line stroke="#ff7f0e" stroke-width="1.1875" x1="-1" x2="110" y1="20.59375" y2="20.59375"/><circle stroke-width="1.5" r="6" stroke="#ff7f0e" fill="var(--markmap-circle-open-bg)" cx="108" cy="20.59375"/><foreignObject class="markmap-foreign" x="8" y="0" width="92" height="20" style="opacity: 1;"><div xmlns="http://www.w3.org/1999/xhtml"><div xmlns="http://www.w3.org/1999/xhtml">Components</div></div></foreignObject></g><g data-depth="5" data-path="1.2.3.8.9" class="markmap-node" transform="translate(750, -228.1796875)"><line stroke="#ff7f0e" stroke-width="1.09375" x1="-1" x2="363" y1="22.546875" y2="22.546875"/><foreignObject class="markmap-foreign" x="8" y="0" width="345" height="22" style="opacity: 1;"><div xmlns="http://www.w3.org/1999/xhtml"><div xmlns="http://www.w3.org/1999/xhtml"><code>useDeliveryJobs</code> — fetches &amp; populates store</div></div></foreignObject></g><g data-depth="5" data-path="1.2.3.8.10" class="markmap-node" transform="translate(750, -200.0859375)"><line stroke="#ff7f0e" stroke-width="1.09375" x1="-1" x2="403" y1="22.546875" y2="22.546875"/><foreignObject class="markmap-foreign" x="8" y="0" width="385" height="22" style="opacity: 1;"><div xmlns="http://www.w3.org/1999/xhtml"><div xmlns="http://www.w3.org/1999/xhtml"><code>useDeliveryJobsStore</code> — reads jobs, loading, error</div></div></foreignObject></g><g data-depth="4" data-path="1.2.3.8" class="markmap-node" transform="translate(609, -213.1328125)"><line stroke="#ff7f0e" stroke-width="1.1875" x1="-1" x2="63" y1="20.59375" y2="20.59375"/><circle stroke-width="1.5" r="6" stroke="#ff7f0e" fill="var(--markmap-circle-open-bg)" cx="61" cy="20.59375"/><foreignObject class="markmap-foreign" x="8" y="0" width="45" height="20" style="opacity: 1;"><div xmlns="http://www.w3.org/1999/xhtml"><div xmlns="http://www.w3.org/1999/xhtml">Hooks</div></div></foreignObject></g><g data-depth="3" data-path="1.2.3" class="markmap-node" transform="translate(318, -251.75)"><line stroke="#ff7f0e" stroke-width="1.375" x1="-1" x2="213" y1="22.6875" y2="22.6875"/><circle stroke-width="1.5" r="6" stroke="#ff7f0e" fill="var(--markmap-circle-open-bg)" cx="211" cy="22.6875"/><foreignObject class="markmap-foreign" x="8" y="0" width="195" height="22" style="opacity: 1;"><div xmlns="http://www.w3.org/1999/xhtml"><div xmlns="http://www.w3.org/1999/xhtml">My Jobs (<code>app/index.tsx</code>)</div></div></foreignObject></g><g data-depth="5" data-path="1.2.11.12.13" class="markmap-node" transform="translate(912, -166.9921875)"><line stroke="#ff7f0e" stroke-width="1.09375" x1="-1" x2="217" y1="22.546875" y2="22.546875"/><foreignObject class="markmap-foreign" x="8" y="0" width="199" height="22" style="opacity: 1;"><div xmlns="http://www.w3.org/1999/xhtml"><div xmlns="http://www.w3.org/1999/xhtml"><code>ToastContent</code> <em>(error toast)</em></div></div></foreignObject></g><g data-depth="4" data-path="1.2.11.12" class="markmap-node" transform="translate(724, -165.9921875)"><line stroke="#ff7f0e" stroke-width="1.1875" x1="-1" x2="110" y1="20.59375" y2="20.59375"/><circle stroke-width="1.5" r="6" stroke="#ff7f0e" fill="var(--markmap-circle-open-bg)" cx="108" cy="20.59375"/><foreignObject class="markmap-foreign" x="8" y="0" width="92" height="20" style="opacity: 1;"><div xmlns="http://www.w3.org/1999/xhtml"><div xmlns="http://www.w3.org/1999/xhtml">Components</div></div></foreignObject></g><g data-depth="5" data-path="1.2.11.14.15" class="markmap-node" transform="translate(865, -133.8984375)"><line stroke="#ff7f0e" stroke-width="1.09375" x1="-1" x2="371" y1="22.546875" y2="22.546875"/><foreignObject class="markmap-foreign" x="8" y="0" width="353" height="22" style="opacity: 1;"><div xmlns="http://www.w3.org/1999/xhtml"><div xmlns="http://www.w3.org/1999/xhtml"><code>useDeliveryJob</code> — selects single job from store</div></div></foreignObject></g><g data-depth="5" data-path="1.2.11.14.16" class="markmap-node" transform="translate(865, -105.8046875)"><line stroke="#ff7f0e" stroke-width="1.09375" x1="-1" x2="466" y1="22.546875" y2="22.546875"/><foreignObject class="markmap-foreign" x="8" y="0" width="448" height="22" style="opacity: 1;"><div xmlns="http://www.w3.org/1999/xhtml"><div xmlns="http://www.w3.org/1999/xhtml"><code>useUpdateDeliveryStatus</code> — orchestrates optimistic update</div></div></foreignObject></g><g data-depth="4" data-path="1.2.11.14" class="markmap-node" transform="translate(724, -118.8515625)"><line stroke="#ff7f0e" stroke-width="1.1875" x1="-1" x2="63" y1="20.59375" y2="20.59375"/><circle stroke-width="1.5" r="6" stroke="#ff7f0e" fill="var(--markmap-circle-open-bg)" cx="61" cy="20.59375"/><foreignObject class="markmap-foreign" x="8" y="0" width="45" height="20" style="opacity: 1;"><div xmlns="http://www.w3.org/1999/xhtml"><div xmlns="http://www.w3.org/1999/xhtml">Hooks</div></div></foreignObject></g><g data-depth="3" data-path="1.2.11" class="markmap-node" transform="translate(318, -143.421875)"><line stroke="#ff7f0e" stroke-width="1.375" x1="-1" x2="328" y1="22.6875" y2="22.6875"/><circle stroke-width="1.5" r="6" stroke="#ff7f0e" fill="var(--markmap-circle-open-bg)" cx="326" cy="22.6875"/><foreignObject class="markmap-foreign" x="8" y="0" width="310" height="22" style="opacity: 1;"><div xmlns="http://www.w3.org/1999/xhtml"><div xmlns="http://www.w3.org/1999/xhtml">Job Detail (<code>app/delivery-job/[id].tsx</code>)</div></div></foreignObject></g><g data-depth="2" data-path="1.2" class="markmap-node" transform="translate(164, -196.5859375)"><line stroke="#ff7f0e" stroke-width="1.75" x1="-1" x2="76" y1="20.875" y2="20.875"/><circle stroke-width="1.5" r="6" stroke="#ff7f0e" fill="var(--markmap-circle-open-bg)" cx="74" cy="20.875"/><foreignObject class="markmap-foreign" x="8" y="0" width="58" height="20" style="opacity: 1;"><div xmlns="http://www.w3.org/1999/xhtml"><div xmlns="http://www.w3.org/1999/xhtml">Screens</div></div></foreignObject></g><g data-depth="3" data-path="1.17.18" class="markmap-node" transform="translate(460, -87.6640625)"><line stroke="#9467bd" stroke-width="1.375" x1="-1" x2="224" y1="20.6875" y2="20.6875"/><foreignObject class="markmap-foreign" x="8" y="0" width="206" height="20" style="opacity: 1;"><div xmlns="http://www.w3.org/1999/xhtml"><div xmlns="http://www.w3.org/1999/xhtml">Expo Router Stack Navigator</div></div></foreignObject></g><g data-depth="3" data-path="1.17.19" class="markmap-node" transform="translate(460, -61.2890625)"><line stroke="#9467bd" stroke-width="1.375" x1="-1" x2="142" y1="20.6875" y2="20.6875"/><foreignObject class="markmap-foreign" x="8" y="0" width="124" height="20" style="opacity: 1;"><div xmlns="http://www.w3.org/1999/xhtml"><div xmlns="http://www.w3.org/1999/xhtml">Tamagui Provider</div></div></foreignObject></g><g data-depth="3" data-path="1.17.20" class="markmap-node" transform="translate(460, -34.9140625)"><line stroke="#9467bd" stroke-width="1.375" x1="-1" x2="119" y1="20.6875" y2="20.6875"/><foreignObject class="markmap-foreign" x="8" y="0" width="101" height="20" style="opacity: 1;"><div xmlns="http://www.w3.org/1999/xhtml"><div xmlns="http://www.w3.org/1999/xhtml">Toast Provider</div></div></foreignObject></g><g data-depth="2" data-path="1.17" class="markmap-node" transform="translate(164, -62.2890625)"><line stroke="#9467bd" stroke-width="1.75" x1="-1" x2="218" y1="22.875" y2="22.875"/><circle stroke-width="1.5" r="6" stroke="#9467bd" fill="var(--markmap-circle-open-bg)" cx="216" cy="22.875"/><foreignObject class="markmap-foreign" x="8" y="0" width="200" height="22" style="opacity: 1;"><div xmlns="http://www.w3.org/1999/xhtml"><div xmlns="http://www.w3.org/1999/xhtml">Layout (<code>app/_layout.tsx</code>)</div></div></foreignObject></g><g data-depth="4" data-path="1.21.22.23" class="markmap-node" transform="translate(572, -3.5390625)"><line stroke="#8c564b" stroke-width="1.1875" x1="-1" x2="149" y1="22.59375" y2="22.59375"/><foreignObject class="markmap-foreign" x="8" y="0" width="131" height="22" style="opacity: 1;"><div xmlns="http://www.w3.org/1999/xhtml"><div xmlns="http://www.w3.org/1999/xhtml"><code>jobs</code> / <code>prevJobs</code></div></div></foreignObject></g><g data-depth="4" data-path="1.21.22.24" class="markmap-node" transform="translate(572, 24.6484375)"><line stroke="#8c564b" stroke-width="1.1875" x1="-1" x2="149" y1="22.59375" y2="22.59375"/><foreignObject class="markmap-foreign" x="8" y="0" width="131" height="22" style="opacity: 1;"><div xmlns="http://www.w3.org/1999/xhtml"><div xmlns="http://www.w3.org/1999/xhtml"><code>loading</code> / <code>error</code></div></div></foreignObject></g><g data-depth="4" data-path="1.21.22.25" class="markmap-node" transform="translate(572, 52.8359375)"><line stroke="#8c564b" stroke-width="1.1875" x1="-1" x2="163" y1="22.59375" y2="22.59375"/><foreignObject class="markmap-foreign" x="8" y="0" width="145" height="22" style="opacity: 1;"><div xmlns="http://www.w3.org/1999/xhtml"><div xmlns="http://www.w3.org/1999/xhtml"><code>advanceJobStatus</code></div></div></foreignObject></g><g data-depth="4" data-path="1.21.22.26" class="markmap-node" transform="translate(572, 81.0234375)"><line stroke="#8c564b" stroke-width="1.1875" x1="-1" x2="155" y1="22.59375" y2="22.59375"/><foreignObject class="markmap-foreign" x="8" y="0" width="137" height="22" style="opacity: 1;"><div xmlns="http://www.w3.org/1999/xhtml"><div xmlns="http://www.w3.org/1999/xhtml"><code>revertJobStatus</code></div></div></foreignObject></g><g data-depth="3" data-path="1.21.22" class="markmap-node" transform="translate(296, 38.7421875)"><line stroke="#8c564b" stroke-width="1.375" x1="-1" x2="198" y1="22.6875" y2="22.6875"/><circle stroke-width="1.5" r="6" stroke="#8c564b" fill="var(--markmap-circle-open-bg)" cx="196" cy="22.6875"/><foreignObject class="markmap-foreign" x="8" y="0" width="180" height="22" style="opacity: 1;"><div xmlns="http://www.w3.org/1999/xhtml"><div xmlns="http://www.w3.org/1999/xhtml"><code>useDeliveryJobsStore</code></div></div></foreignObject></g><g data-depth="4" data-path="1.21.27.28" class="markmap-node" transform="translate(529, 114.2109375)"><line stroke="#8c564b" stroke-width="1.1875" x1="-1" x2="185" y1="22.59375" y2="22.59375"/><foreignObject class="markmap-foreign" x="8" y="0" width="167" height="22" style="opacity: 1;"><div xmlns="http://www.w3.org/1999/xhtml"><div xmlns="http://www.w3.org/1999/xhtml"><code>courierId</code> <em>(persisted)</em></div></div></foreignObject></g><g data-depth="3" data-path="1.21.27" class="markmap-node" transform="translate(296, 114.2109375)"><line stroke="#8c564b" stroke-width="1.375" x1="-1" x2="155" y1="22.6875" y2="22.6875"/><circle stroke-width="1.5" r="6" stroke="#8c564b" fill="var(--markmap-circle-open-bg)" cx="153" cy="22.6875"/><foreignObject class="markmap-foreign" x="8" y="0" width="137" height="22" style="opacity: 1;"><div xmlns="http://www.w3.org/1999/xhtml"><div xmlns="http://www.w3.org/1999/xhtml"><code>useCourierStore</code></div></div></foreignObject></g><g data-depth="2" data-path="1.21" class="markmap-node" transform="translate(164, 77.4765625)"><line stroke="#8c564b" stroke-width="1.75" x1="-1" x2="54" y1="20.875" y2="20.875"/><circle stroke-width="1.5" r="6" stroke="#8c564b" fill="var(--markmap-circle-open-bg)" cx="52" cy="20.875"/><foreignObject class="markmap-foreign" x="8" y="0" width="36" height="20" style="opacity: 1;"><div xmlns="http://www.w3.org/1999/xhtml"><div xmlns="http://www.w3.org/1999/xhtml">State</div></div></foreignObject></g><g data-depth="4" data-path="1.29.30.31" class="markmap-node" transform="translate(588, 147.3984375)"><line stroke="#e377c2" stroke-width="1.1875" x1="-1" x2="241" y1="22.59375" y2="22.59375"/><foreignObject class="markmap-foreign" x="8" y="0" width="223" height="22" style="opacity: 1;"><div xmlns="http://www.w3.org/1999/xhtml"><div xmlns="http://www.w3.org/1999/xhtml"><code>getCourierJobs(courierId)</code></div></div></foreignObject></g><g data-depth="4" data-path="1.29.30.32" class="markmap-node" transform="translate(588, 175.5859375)"><line stroke="#e377c2" stroke-width="1.1875" x1="-1" x2="112" y1="22.59375" y2="22.59375"/><foreignObject class="markmap-foreign" x="8" y="0" width="94" height="22" style="opacity: 1;"><div xmlns="http://www.w3.org/1999/xhtml"><div xmlns="http://www.w3.org/1999/xhtml"><code>getJob(id)</code></div></div></foreignObject></g><g data-depth="4" data-path="1.29.30.33" class="markmap-node" transform="translate(588, 203.7734375)"><line stroke="#e377c2" stroke-width="1.1875" x1="-1" x2="233" y1="22.59375" y2="22.59375"/><foreignObject class="markmap-foreign" x="8" y="0" width="215" height="22" style="opacity: 1;"><div xmlns="http://www.w3.org/1999/xhtml"><div xmlns="http://www.w3.org/1999/xhtml"><code>updateStatus(id, status)</code></div></div></foreignObject></g><g data-depth="3" data-path="1.29.30" class="markmap-node" transform="translate(321, 175.5859375)"><line stroke="#e377c2" stroke-width="1.375" x1="-1" x2="189" y1="22.6875" y2="22.6875"/><circle stroke-width="1.5" r="6" stroke="#e377c2" fill="var(--markmap-circle-open-bg)" cx="187" cy="22.6875"/><foreignObject class="markmap-foreign" x="8" y="0" width="171" height="22" style="opacity: 1;"><div xmlns="http://www.w3.org/1999/xhtml"><div xmlns="http://www.w3.org/1999/xhtml"><code>DeliveryJobsService</code></div></div></foreignObject></g><g data-depth="2" data-path="1.29" class="markmap-node" transform="translate(164, 176.5859375)"><line stroke="#e377c2" stroke-width="1.75" x1="-1" x2="79" y1="20.875" y2="20.875"/><circle stroke-width="1.5" r="6" stroke="#e377c2" fill="var(--markmap-circle-open-bg)" cx="77" cy="20.875"/><foreignObject class="markmap-foreign" x="8" y="0" width="61" height="20" style="opacity: 1;"><div xmlns="http://www.w3.org/1999/xhtml"><div xmlns="http://www.w3.org/1999/xhtml">Services</div></div></foreignObject></g><g data-depth="1" data-path="1" class="markmap-node" transform="translate(0, -10)"><line stroke="#1f77b4" stroke-width="2.5" x1="-1" x2="86" y1="21.25" y2="21.25"/><circle stroke-width="1.5" r="6" stroke="#1f77b4" fill="var(--markmap-circle-open-bg)" cx="84" cy="21.25"/><foreignObject class="markmap-foreign" x="8" y="0" width="68" height="20" style="opacity: 1;"><div xmlns="http://www.w3.org/1999/xhtml"><div xmlns="http://www.w3.org/1999/xhtml">Swift App</div></div></foreignObject></g></g></svg>